<svg id="Layer_1" data-name="Layer 1" xmlns="http://www.w3.org/2000/svg" viewBox="0 0 400 400"><defs><style>.cls-1{fill:#010101;}</style></defs><path class="cls-1" d="M192.86,383.86a7.46,7.46,0,1,1-7.1-7.62A7.56,7.56,0,0,1,192.86,383.86Z"/><path d="M387.51,220.69a25.41,25.41,0,0,0-17.22-7.9c-5.83-.33-6.43-.85-6.44-6.58q0-21.86,0-43.73a43.39,43.39,0,0,0-1.27-10.73C358.86,137,349.78,126.59,336,120.59c-4.7-2-8.13-4.6-10.66-9.16-8.8-15.9-18.15-31.5-27.12-47.32-3-5.33-6.36-10.39-11.07-14.44-9-7.73-19.57-10.08-31.05-8.82a10,10,0,0,1-9-3.21Q236.17,26.59,225.13,15.7A22.71,22.71,0,0,0,210.7,8.83a18,18,0,0,1-5.09-.76H192.89c-.37.29-.7.74-1.11.83-9,2-15.82,7.4-22.18,13.8q-46.69,47-93.57,93.72a7.25,7.25,0,0,1-5.85,2.45c-5.36-.18-10.72-.06-16.08-.06-26.48,0-45.27,18.74-45.28,45.15q0,90.92,0,181.82c0,26.68,18.72,45.39,45.42,45.4h94.65a31.35,31.35,0,0,0,3.36-.06,7.44,7.44,0,0,0-.09-14.86c-1.11-.1-2.24,0-3.36,0q-47.52,0-95,0c-17.94,0-30-12.13-30-30.11q0-91.1,0-182.19c0-18,12-30.12,30-30.12q131.69,0,263.37,0c17.75,0,29.87,12.08,29.91,29.78,0,15.59-.08,31.18.08,46.76,0,3.27-.61,4.4-4.18,4.36-17.58-.2-35.17-.32-52.75,0-21,.38-38.3,18-38.88,38.9a40.34,40.34,0,0,0,39.84,41.75c16.7.24,33.42.06,50.13.06,5.77,0,5.77,0,5.77,6,0,14.22-.55,28.46.14,42.65.92,19.09-13,32.8-32.16,32.39-30.91-.68-61.85-.18-92.78-.18-1.24,0-2.5-.07-3.73,0a7.44,7.44,0,0,0-.16,14.83,18.92,18.92,0,0,0,2.61.08q48.45,0,96.9,0c25-.05,44.06-19.13,44.14-44.05.05-15.09,0-30.17,0-45.26,0-6.41,0-6.41,6.4-6.46,10.89-.08,18.27-5.18,22.38-15.43.26-.65.23-1.53,1.15-1.78V232.55C390.81,228.47,390.85,224.07,387.51,220.69ZM117.75,118.83c-7.33,0-14.66,0-22.86,0,1.4-1.47,2.14-2.29,2.92-3.07q42.42-42.42,84.84-84.84c10.59-10.58,23.66-10.57,34.26,0,5.92,5.89,11.74,11.88,17.75,17.66,2,1.93,1.58,2.65-.61,3.91q-56.48,32.49-112.86,65.12A6.7,6.7,0,0,1,117.75,118.83Zm32.51-.2c.77-1.39,2-1.69,3.06-2.28Q201,88.76,248.69,61.23c13.21-7.63,25.78-4.31,33.4,8.83q13.2,22.77,26.33,45.59c.49.84.92,1.71,1.58,3ZM367.18,280.44q-18.87,0-37.74,0c-12.58,0-25.17.1-37.75,0A25.42,25.42,0,0,1,288,229.83a30.09,30.09,0,0,1,4.84-.26q37.38,0,74.74,0c6.85,0,9.4,2.6,9.41,9.54q0,15.71,0,31.39C377,278,374.52,280.43,367.18,280.44Z"/><path class="cls-1" d="M297.78,255.12a7.36,7.36,0,0,1-7.41,7.33,7.46,7.46,0,1,1,.26-14.92A7.34,7.34,0,0,1,297.78,255.12Z"/></svg>